<mxfile host="app.diagrams.net" agent="Mozilla/5.0 (Windows NT 10.0; Win64; x64) AppleWebKit/537.36 (KHTML, like Gecko) Chrome/139.0.0.0 Safari/537.36" version="28.1.2">
  <diagram name="Seite-1" id="NF1LmopCpD1e3hgJVWx2">
    <mxGraphModel dx="2278" dy="927" grid="1" gridSize="10" guides="1" tooltips="1" connect="1" arrows="1" fold="1" page="1" pageScale="1" pageWidth="827" pageHeight="1169" math="0" shadow="0">
      <root>
        <mxCell id="0" />
        <mxCell id="1" parent="0" />
        <mxCell id="TXKAZUFNtH0uTK_UZmPh-5" value="Customer" style="swimlane;fontStyle=1;align=center;verticalAlign=top;childLayout=stackLayout;horizontal=1;startSize=26;horizontalStack=0;resizeParent=1;resizeParentMax=0;resizeLast=0;collapsible=1;marginBottom=0;whiteSpace=wrap;html=1;" vertex="1" parent="1">
          <mxGeometry x="100" y="130" width="180" height="190" as="geometry" />
        </mxCell>
        <mxCell id="TXKAZUFNtH0uTK_UZmPh-6" value="- firstName : String&lt;br/&gt;- lastName : String" style="text;strokeColor=none;fillColor=none;align=left;verticalAlign=top;spacingLeft=4;spacingRight=4;overflow=hidden;rotatable=0;points=[[0,0.5],[1,0.5]];portConstraint=eastwest;whiteSpace=wrap;html=1;" vertex="1" parent="TXKAZUFNtH0uTK_UZmPh-5">
          <mxGeometry y="26" width="180" height="44" as="geometry" />
        </mxCell>
        <mxCell id="TXKAZUFNtH0uTK_UZmPh-7" value="" style="line;strokeWidth=1;fillColor=none;align=left;verticalAlign=middle;spacingTop=-1;spacingLeft=3;spacingRight=3;rotatable=0;labelPosition=right;points=[];portConstraint=eastwest;strokeColor=inherit;" vertex="1" parent="TXKAZUFNtH0uTK_UZmPh-5">
          <mxGeometry y="70" width="180" height="8" as="geometry" />
        </mxCell>
        <mxCell id="TXKAZUFNtH0uTK_UZmPh-8" value="+ Customer(firstName:String, lastName:String)&lt;br/&gt;+ getFirstName() : String&lt;br/&gt;+ getLastName() : String&lt;br/&gt;+ getDisplayName() : String" style="text;strokeColor=none;fillColor=none;align=left;verticalAlign=top;spacingLeft=4;spacingRight=4;overflow=hidden;rotatable=0;points=[[0,0.5],[1,0.5]];portConstraint=eastwest;whiteSpace=wrap;html=1;" vertex="1" parent="TXKAZUFNtH0uTK_UZmPh-5">
          <mxGeometry y="78" width="180" height="112" as="geometry" />
        </mxCell>
        <mxCell id="TXKAZUFNtH0uTK_UZmPh-9" value="Account" style="swimlane;fontStyle=1;align=center;verticalAlign=top;childLayout=stackLayout;horizontal=1;startSize=26;horizontalStack=0;resizeParent=1;resizeParentMax=0;resizeLast=0;collapsible=1;marginBottom=0;whiteSpace=wrap;html=1;" vertex="1" parent="1">
          <mxGeometry x="320" y="410" width="200" height="310" as="geometry" />
        </mxCell>
        <mxCell id="TXKAZUFNtH0uTK_UZmPh-10" value="- iban : String&lt;br/&gt;- owner : Customer&lt;br/&gt;- balance : BigDecimal" style="text;strokeColor=none;fillColor=none;align=left;verticalAlign=top;spacingLeft=4;spacingRight=4;overflow=hidden;rotatable=0;points=[[0,0.5],[1,0.5]];portConstraint=eastwest;whiteSpace=wrap;html=1;" vertex="1" parent="TXKAZUFNtH0uTK_UZmPh-9">
          <mxGeometry y="26" width="200" height="64" as="geometry" />
        </mxCell>
        <mxCell id="TXKAZUFNtH0uTK_UZmPh-11" value="" style="line;strokeWidth=1;fillColor=none;align=left;verticalAlign=middle;spacingTop=-1;spacingLeft=3;spacingRight=3;rotatable=0;labelPosition=right;points=[];portConstraint=eastwest;strokeColor=inherit;" vertex="1" parent="TXKAZUFNtH0uTK_UZmPh-9">
          <mxGeometry y="90" width="200" height="8" as="geometry" />
        </mxCell>
        <mxCell id="TXKAZUFNtH0uTK_UZmPh-12" value="+ Account(iban:String, owner:Customer, startBalance:BigDecimal)&lt;br/&gt;+ getIban() : String&lt;br/&gt;+ getOwner() : Customer&lt;br/&gt;+ getBalance() : BigDecimal&lt;br/&gt;+ deposit(amount:BigDecimal) : boolean&lt;br/&gt;+ withdraw(amount:BigDecimal) : boolean&lt;br/&gt;+ transferTo(target:Account, amount:BigDecimal) : boolean" style="text;strokeColor=none;fillColor=none;align=left;verticalAlign=top;spacingLeft=4;spacingRight=4;overflow=hidden;rotatable=0;points=[[0,0.5],[1,0.5]];portConstraint=eastwest;whiteSpace=wrap;html=1;" vertex="1" parent="TXKAZUFNtH0uTK_UZmPh-9">
          <mxGeometry y="98" width="200" height="212" as="geometry" />
        </mxCell>
        <mxCell id="TXKAZUFNtH0uTK_UZmPh-13" value="MainBank" style="swimlane;fontStyle=1;align=center;verticalAlign=top;childLayout=stackLayout;horizontal=1;startSize=26;horizontalStack=0;resizeParent=1;resizeParentMax=0;resizeLast=0;collapsible=1;marginBottom=0;whiteSpace=wrap;html=1;" vertex="1" parent="1">
          <mxGeometry x="540" y="130" width="180" height="60" as="geometry" />
        </mxCell>
        <mxCell id="TXKAZUFNtH0uTK_UZmPh-15" value="" style="line;strokeWidth=1;fillColor=none;align=left;verticalAlign=middle;spacingTop=-1;spacingLeft=3;spacingRight=3;rotatable=0;labelPosition=right;points=[];portConstraint=eastwest;strokeColor=inherit;" vertex="1" parent="TXKAZUFNtH0uTK_UZmPh-13">
          <mxGeometry y="26" width="180" height="8" as="geometry" />
        </mxCell>
        <mxCell id="TXKAZUFNtH0uTK_UZmPh-16" value="+ main(args:String[]) : void" style="text;strokeColor=none;fillColor=none;align=left;verticalAlign=top;spacingLeft=4;spacingRight=4;overflow=hidden;rotatable=0;points=[[0,0.5],[1,0.5]];portConstraint=eastwest;whiteSpace=wrap;html=1;" vertex="1" parent="TXKAZUFNtH0uTK_UZmPh-13">
          <mxGeometry y="34" width="180" height="26" as="geometry" />
        </mxCell>
        <mxCell id="TXKAZUFNtH0uTK_UZmPh-18" value="Uses" style="endArrow=open;endSize=12;dashed=1;html=1;rounded=0;" edge="1" parent="1" target="TXKAZUFNtH0uTK_UZmPh-8">
          <mxGeometry width="160" relative="1" as="geometry">
            <mxPoint x="540" y="160" as="sourcePoint" />
            <mxPoint x="470" y="560" as="targetPoint" />
          </mxGeometry>
        </mxCell>
        <mxCell id="TXKAZUFNtH0uTK_UZmPh-20" value="Uses" style="endArrow=open;endSize=12;dashed=1;html=1;rounded=0;exitX=0;exitY=0.5;exitDx=0;exitDy=0;entryX=0.5;entryY=0;entryDx=0;entryDy=0;" edge="1" parent="1" source="TXKAZUFNtH0uTK_UZmPh-16" target="TXKAZUFNtH0uTK_UZmPh-9">
          <mxGeometry width="160" relative="1" as="geometry">
            <mxPoint x="800" y="500" as="sourcePoint" />
            <mxPoint x="540" y="577" as="targetPoint" />
          </mxGeometry>
        </mxCell>
        <mxCell id="TXKAZUFNtH0uTK_UZmPh-21" value="Extends" style="endArrow=block;endSize=16;endFill=0;html=1;rounded=0;entryX=1;entryY=0.5;entryDx=0;entryDy=0;exitX=0;exitY=0;exitDx=0;exitDy=0;" edge="1" parent="1" source="TXKAZUFNtH0uTK_UZmPh-9" target="TXKAZUFNtH0uTK_UZmPh-8">
          <mxGeometry width="160" relative="1" as="geometry">
            <mxPoint x="360" y="380" as="sourcePoint" />
            <mxPoint x="250" y="460" as="targetPoint" />
          </mxGeometry>
        </mxCell>
      </root>
    </mxGraphModel>
  </diagram>
</mxfile>
